<svg width="26" height="33" viewBox="0 0 26 33" fill="none" xmlns="http://www.w3.org/2000/svg">
<path d="M13 0C12.5075 0 12.0351 0.193155 11.6868 0.536971C11.3385 0.880788 11.1429 1.3471 11.1429 1.83333V19.3032L3.30943 11.561C3.12953 11.3832 2.91588 11.2421 2.68071 11.1458C2.44553 11.0496 2.19344 11 1.93886 11C1.68427 11 1.43218 11.0496 1.19701 11.1458C0.961833 11.2421 0.748187 11.3832 0.568286 11.561C0.204703 11.9205 0.000495911 12.4078 0.000495911 12.9158C0.000495911 13.4239 0.204703 13.9111 0.568286 14.2707L11.5329 25.1057C11.9359 25.5035 12.4726 25.6905 13 25.6648C13.5274 25.6905 14.0641 25.5035 14.4671 25.1057L25.4317 14.2707C25.7953 13.9111 25.9995 13.4239 25.9995 12.9158C25.9995 12.4078 25.7953 11.9205 25.4317 11.561C25.2518 11.3832 25.0382 11.2421 24.803 11.1458C24.5678 11.0496 24.3157 11 24.0611 11C23.8066 11 23.5545 11.0496 23.3193 11.1458C23.0841 11.2421 22.8705 11.3832 22.6906 11.561L14.8571 19.3032V1.83333C14.8571 1.3471 14.6615 0.880788 14.3132 0.536971C13.9649 0.193155 13.4925 0 13 0ZM0 31.1667C0 30.6804 0.195663 30.2141 0.543945 29.8703C0.892227 29.5265 1.3646 29.3333 1.85714 29.3333H24.1429C24.6354 29.3333 25.1078 29.5265 25.4561 29.8703C25.8043 30.2141 26 30.6804 26 31.1667C26 31.6529 25.8043 32.1192 25.4561 32.463C25.1078 32.8068 24.6354 33 24.1429 33H1.85714C1.3646 33 0.892227 32.8068 0.543945 32.463C0.195663 32.1192 0 31.6529 0 31.1667Z" fill="black"/>
</svg>
