<svg width="18" height="19" viewBox="0 0 18 19" fill="none" xmlns="http://www.w3.org/2000/svg">
<path d="M0.903417 15.9765C0.338166 16.5821 0.370897 17.5313 0.976523 18.0966C1.58215 18.6618 2.53133 18.6291 3.09658 18.0235L0.903417 15.9765ZM17.4991 1.94831C17.4706 1.12037 16.7762 0.472341 15.9483 0.50089L2.45632 0.966131C1.62839 0.994681 0.98036 1.689 1.00891 2.51693C1.03746 3.34487 1.73178 3.9929 2.55971 3.96435L14.5526 3.5508L14.9661 15.5437C14.9947 16.3716 15.689 17.0196 16.5169 16.9911C17.3449 16.9625 17.9929 16.2682 17.9644 15.4403L17.4991 1.94831ZM3.09658 18.0235L17.0966 3.02348L14.9034 0.976522L0.903417 15.9765L3.09658 18.0235Z" fill="#FF6D00"/>
</svg>
