<svg width="30" height="31" viewBox="0 0 30 31" fill="none" xmlns="http://www.w3.org/2000/svg">
<path id="Arrow 5" d="M0.532479 27.6412C-0.217975 28.4517 -0.169306 29.7171 0.641184 30.4675C1.45167 31.218 2.71707 31.1693 3.46752 30.3588L0.532479 27.6412ZM28.9985 1.92313C28.9561 0.819381 28.0269 -0.0409737 26.9231 0.00147783L8.93643 0.693276C7.83268 0.735727 6.97232 1.66491 7.01478 2.76866C7.05723 3.87242 7.98641 4.73277 9.09017 4.69032L25.0783 4.07539L25.6933 20.0636C25.7357 21.1673 26.6649 22.0277 27.7687 21.9852C28.8724 21.9428 29.7328 21.0136 29.6903 19.9098L28.9985 1.92313ZM3.46752 30.3588L28.4675 3.35882L25.5325 0.641185L0.532479 27.6412L3.46752 30.3588Z" fill="#FF6D00"/>
</svg>
